<svg width="184" height="42" viewBox="0 0 184 42" fill="none" xmlns="http://www.w3.org/2000/svg">
<path d="M16.3167 7.49568C16.5177 9.59035 16.3385 12.0846 15.5329 14.1039L15.6776 14.1934C15.7293 14.1925 15.7824 14.1934 15.8344 14.1934C21.0779 14.1934 25.3253 18.6951 25.3253 24.2526C25.3253 25.6178 25.0669 26.9253 24.6017 28.1127L29.4377 32.8292C30.8479 30.3204 31.6566 27.3831 31.6566 24.2526C31.6566 15.1643 24.8294 7.76898 16.3167 7.49568ZM9.79246 8.7483C4.04772 11.2657 3.8591e-07 17.2579 0 24.2526C0 30.8625 3.61869 36.5757 8.86386 39.3096V31.0909C8.25532 30.394 7.73686 29.6097 7.33228 28.7518C6.25811 26.7398 5.55428 23.5861 5.55951 20.2519C5.56609 16.0562 6.58713 11.6407 9.79246 8.7483Z" fill="#D9DBE7"/>
<path fill-rule="evenodd" clip-rule="evenodd" d="M9.82749 29.387C6.61524 25.5371 6.45938 21.2358 7.34959 18.7726C9.02723 14.1307 15.1076 12.009 16.0226 5.07194C16.2644 22.3072 8.22876 16.4464 9.82749 29.387Z" fill="#D9DBE7"/>
<path fill-rule="evenodd" clip-rule="evenodd" d="M6.4395 18.7171C5.9258 8.04241 14.2646 9.3742 15.345 0.25C16.7588 11.2293 7.52645 12.417 6.4395 18.7171Z" fill="#D9DBE7"/>
<path d="M11.8757 32.4836C11.8758 32.625 11.8496 32.765 11.7986 32.8955C11.7476 33.0261 11.6728 33.1448 11.5785 33.2448C11.4842 33.3447 11.3723 33.424 11.2491 33.4781C11.1259 33.5322 10.9939 33.5601 10.8605 33.5601C10.7272 33.5601 10.5951 33.5322 10.4719 33.4781C10.3487 33.424 10.2368 33.3447 10.1425 33.2448C10.0482 33.1448 9.97348 33.0261 9.92248 32.8955C9.87148 32.765 9.84526 32.625 9.84531 32.4836C9.84526 32.3423 9.87148 32.2024 9.92248 32.0718C9.97348 31.9412 10.0482 31.8225 10.1425 31.7225C10.2368 31.6226 10.3487 31.5433 10.4719 31.4892C10.5951 31.4351 10.7272 31.4072 10.8605 31.4072C10.9939 31.4072 11.1259 31.4351 11.2491 31.4892C11.3723 31.5433 11.4842 31.6226 11.5785 31.7225C11.6728 31.8225 11.7476 31.9412 11.7986 32.0718C11.8496 32.2024 11.8758 32.3423 11.8757 32.4836Z" fill="#D9DBE7"/>
<path d="M11.8757 35.2142C11.8758 35.3555 11.8496 35.4955 11.7986 35.6261C11.7476 35.7567 11.6728 35.8753 11.5785 35.9753C11.4842 36.0752 11.3723 36.1545 11.2491 36.2086C11.1259 36.2627 10.9939 36.2906 10.8605 36.2906C10.7272 36.2906 10.5951 36.2627 10.4719 36.2086C10.3487 36.1545 10.2368 36.0752 10.1425 35.9753C10.0482 35.8753 9.97348 35.7567 9.92248 35.6261C9.87148 35.4955 9.84526 35.3555 9.84531 35.2142C9.84526 35.0728 9.87148 34.9329 9.92248 34.8023C9.97348 34.6717 10.0482 34.553 10.1425 34.4531C10.2368 34.3531 10.3487 34.2738 10.4719 34.2197C10.5951 34.1656 10.7272 34.1378 10.8605 34.1378C10.9939 34.1378 11.1259 34.1656 11.2491 34.2197C11.3723 34.2738 11.4842 34.3531 11.5785 34.4531C11.6728 34.553 11.7476 34.6717 11.7986 34.8023C11.8496 34.9329 11.8758 35.0728 11.8757 35.2142Z" fill="#D9DBE7"/>
<path d="M11.8757 37.9431C11.8758 38.0844 11.8496 38.2244 11.7986 38.355C11.7476 38.4856 11.6728 38.6042 11.5785 38.7042C11.4842 38.8041 11.3723 38.8834 11.2491 38.9375C11.1259 38.9916 10.9939 39.0195 10.8605 39.0195C10.7272 39.0195 10.5951 38.9916 10.4719 38.9375C10.3487 38.8834 10.2368 38.8041 10.1425 38.7042C10.0482 38.6042 9.97348 38.4856 9.92248 38.355C9.87148 38.2244 9.84526 38.0844 9.84531 37.9431C9.84526 37.8017 9.87148 37.6618 9.92248 37.5312C9.97348 37.4006 10.0482 37.2819 10.1425 37.182C10.2368 37.082 10.3487 37.0027 10.4719 36.9486C10.5951 36.8945 10.7272 36.8667 10.8605 36.8667C10.9939 36.8667 11.1259 36.8945 11.2491 36.9486C11.3723 37.0027 11.4842 37.082 11.5785 37.182C11.6728 37.2819 11.7476 37.4006 11.7986 37.5312C11.8496 37.6618 11.8758 37.8017 11.8757 37.9431Z" fill="#D9DBE7"/>
<path d="M14.4513 32.4836C14.4514 32.625 14.4251 32.765 14.3741 32.8955C14.3231 33.0261 14.2484 33.1448 14.1541 33.2448C14.0598 33.3447 13.9479 33.424 13.8247 33.4781C13.7015 33.5322 13.5695 33.5601 13.4361 33.5601C13.3028 33.5601 13.1707 33.5322 13.0475 33.4781C12.9243 33.424 12.8124 33.3447 12.7181 33.2448C12.6238 33.1448 12.5491 33.0261 12.4981 32.8955C12.4471 32.765 12.4208 32.625 12.4209 32.4836C12.4208 32.3423 12.4471 32.2024 12.4981 32.0718C12.5491 31.9412 12.6238 31.8225 12.7181 31.7225C12.8124 31.6226 12.9243 31.5433 13.0475 31.4892C13.1707 31.4351 13.3028 31.4072 13.4361 31.4072C13.5695 31.4072 13.7015 31.4351 13.8247 31.4892C13.9479 31.5433 14.0598 31.6226 14.1541 31.7225C14.2484 31.8225 14.3231 31.9412 14.3741 32.0718C14.4251 32.2024 14.4514 32.3423 14.4513 32.4836Z" fill="#D9DBE7"/>
<path d="M14.4513 35.2142C14.4514 35.3555 14.4251 35.4955 14.3741 35.6261C14.3231 35.7567 14.2484 35.8753 14.1541 35.9753C14.0598 36.0752 13.9479 36.1545 13.8247 36.2086C13.7015 36.2627 13.5695 36.2906 13.4361 36.2906C13.3028 36.2906 13.1707 36.2627 13.0475 36.2086C12.9243 36.1545 12.8124 36.0752 12.7181 35.9753C12.6238 35.8753 12.5491 35.7567 12.4981 35.6261C12.4471 35.4955 12.4208 35.3555 12.4209 35.2142C12.4208 35.0728 12.4471 34.9329 12.4981 34.8023C12.5491 34.6717 12.6238 34.553 12.7181 34.4531C12.8124 34.3531 12.9243 34.2738 13.0475 34.2197C13.1707 34.1656 13.3028 34.1378 13.4361 34.1378C13.5695 34.1378 13.7015 34.1656 13.8247 34.2197C13.9479 34.2738 14.0598 34.3531 14.1541 34.4531C14.2484 34.553 14.3231 34.6717 14.3741 34.8023C14.4251 34.9329 14.4514 35.0728 14.4513 35.2142Z" fill="#D9DBE7"/>
<path d="M14.4513 37.9431C14.4514 38.0844 14.4251 38.2244 14.3741 38.355C14.3231 38.4856 14.2484 38.6042 14.1541 38.7042C14.0598 38.8041 13.9479 38.8834 13.8247 38.9375C13.7015 38.9916 13.5695 39.0195 13.4361 39.0195C13.3028 39.0195 13.1707 38.9916 13.0475 38.9375C12.9243 38.8834 12.8124 38.8041 12.7181 38.7042C12.6238 38.6042 12.5491 38.4856 12.4981 38.355C12.4471 38.2244 12.4208 38.0844 12.4209 37.9431C12.4208 37.8017 12.4471 37.6618 12.4981 37.5312C12.5491 37.4006 12.6238 37.2819 12.7181 37.182C12.8124 37.082 12.9243 37.0027 13.0475 36.9486C13.1707 36.8945 13.3028 36.8667 13.4361 36.8667C13.5695 36.8667 13.7015 36.8945 13.8247 36.9486C13.9479 37.0027 14.0598 37.082 14.1541 37.182C14.2484 37.2819 14.3231 37.4006 14.3741 37.5312C14.4251 37.6618 14.4514 37.8017 14.4513 37.9431Z" fill="#D9DBE7"/>
<path d="M17.0269 32.4836C17.027 32.625 17.0007 32.765 16.9497 32.8955C16.8987 33.0261 16.824 33.1448 16.7297 33.2448C16.6354 33.3447 16.5235 33.424 16.4003 33.4781C16.2771 33.5322 16.145 33.5601 16.0117 33.5601C15.8783 33.5601 15.7463 33.5322 15.6231 33.4781C15.4999 33.424 15.388 33.3447 15.2937 33.2448C15.1994 33.1448 15.1247 33.0261 15.0737 32.8955C15.0227 32.765 14.9964 32.625 14.9965 32.4836C14.9964 32.3423 15.0227 32.2024 15.0737 32.0718C15.1247 31.9412 15.1994 31.8225 15.2937 31.7225C15.388 31.6226 15.4999 31.5433 15.6231 31.4892C15.7463 31.4351 15.8783 31.4072 16.0117 31.4072C16.145 31.4072 16.2771 31.4351 16.4003 31.4892C16.5235 31.5433 16.6354 31.6226 16.7297 31.7225C16.824 31.8225 16.8987 31.9412 16.9497 32.0718C17.0007 32.2024 17.027 32.3423 17.0269 32.4836Z" fill="#D9DBE7"/>
<path d="M17.0269 35.2142C17.027 35.3555 17.0007 35.4955 16.9497 35.6261C16.8987 35.7567 16.824 35.8753 16.7297 35.9753C16.6354 36.0752 16.5235 36.1545 16.4003 36.2086C16.2771 36.2627 16.145 36.2906 16.0117 36.2906C15.8783 36.2906 15.7463 36.2627 15.6231 36.2086C15.4999 36.1545 15.388 36.0752 15.2937 35.9753C15.1994 35.8753 15.1247 35.7567 15.0737 35.6261C15.0227 35.4955 14.9964 35.3555 14.9965 35.2142C14.9964 35.0728 15.0227 34.9329 15.0737 34.8023C15.1247 34.6717 15.1994 34.553 15.2937 34.4531C15.388 34.3531 15.4999 34.2738 15.6231 34.2197C15.7463 34.1656 15.8783 34.1378 16.0117 34.1378C16.145 34.1378 16.2771 34.1656 16.4003 34.2197C16.5235 34.2738 16.6354 34.3531 16.7297 34.4531C16.824 34.553 16.8987 34.6717 16.9497 34.8023C17.0007 34.9329 17.027 35.0728 17.0269 35.2142Z" fill="#D9DBE7"/>
<path d="M17.0269 37.9431C17.027 38.0844 17.0007 38.2244 16.9497 38.355C16.8987 38.4856 16.824 38.6042 16.7297 38.7042C16.6354 38.8041 16.5235 38.8834 16.4003 38.9375C16.2771 38.9916 16.145 39.0195 16.0117 39.0195C15.8783 39.0195 15.7463 38.9916 15.6231 38.9375C15.4999 38.8834 15.388 38.8041 15.2937 38.7042C15.1994 38.6042 15.1247 38.4856 15.0737 38.355C15.0227 38.2244 14.9964 38.0844 14.9965 37.9431C14.9964 37.8017 15.0227 37.6618 15.0737 37.5312C15.1247 37.4006 15.1994 37.2819 15.2937 37.182C15.388 37.082 15.4999 37.0027 15.6231 36.9486C15.7463 36.8945 15.8783 36.8667 16.0117 36.8667C16.145 36.8667 16.2771 36.8945 16.4003 36.9486C16.5235 37.0027 16.6354 37.082 16.7297 37.182C16.824 37.2819 16.8987 37.4006 16.9497 37.5312C17.0007 37.6618 17.027 37.8017 17.0269 37.9431Z" fill="#D9DBE7"/>
<path d="M19.6025 32.4836C19.6025 32.625 19.5763 32.765 19.5253 32.8955C19.4743 33.0261 19.3996 33.1448 19.3053 33.2448C19.211 33.3447 19.0991 33.424 18.9759 33.4781C18.8527 33.5322 18.7206 33.5601 18.5873 33.5601C18.4539 33.5601 18.3219 33.5322 18.1987 33.4781C18.0755 33.424 17.9636 33.3447 17.8693 33.2448C17.775 33.1448 17.7002 33.0261 17.6492 32.8955C17.5982 32.765 17.572 32.625 17.5721 32.4836C17.572 32.3423 17.5982 32.2024 17.6492 32.0718C17.7002 31.9412 17.775 31.8225 17.8693 31.7225C17.9636 31.6226 18.0755 31.5433 18.1987 31.4892C18.3219 31.4351 18.4539 31.4072 18.5873 31.4072C18.7206 31.4072 18.8527 31.4351 18.9759 31.4892C19.0991 31.5433 19.211 31.6226 19.3053 31.7225C19.3996 31.8225 19.4743 31.9412 19.5253 32.0718C19.5763 32.2024 19.6025 32.3423 19.6025 32.4836Z" fill="#D9DBE7"/>
<path d="M19.6025 35.2142C19.6025 35.3555 19.5763 35.4955 19.5253 35.6261C19.4743 35.7567 19.3996 35.8753 19.3053 35.9753C19.211 36.0752 19.0991 36.1545 18.9759 36.2086C18.8527 36.2627 18.7206 36.2906 18.5873 36.2906C18.4539 36.2906 18.3219 36.2627 18.1987 36.2086C18.0755 36.1545 17.9636 36.0752 17.8693 35.9753C17.775 35.8753 17.7002 35.7567 17.6492 35.6261C17.5982 35.4955 17.572 35.3555 17.5721 35.2142C17.572 35.0728 17.5982 34.9329 17.6492 34.8023C17.7002 34.6717 17.775 34.553 17.8693 34.4531C17.9636 34.3531 18.0755 34.2738 18.1987 34.2197C18.3219 34.1656 18.4539 34.1378 18.5873 34.1378C18.7206 34.1378 18.8527 34.1656 18.9759 34.2197C19.0991 34.2738 19.211 34.3531 19.3053 34.4531C19.3996 34.553 19.4743 34.6717 19.5253 34.8023C19.5763 34.9329 19.6025 35.0728 19.6025 35.2142Z" fill="#D9DBE7"/>
<path d="M19.6025 37.9431C19.6025 38.0844 19.5763 38.2244 19.5253 38.355C19.4743 38.4856 19.3996 38.6042 19.3053 38.7042C19.211 38.8041 19.0991 38.8834 18.9759 38.9375C18.8527 38.9916 18.7206 39.0195 18.5873 39.0195C18.4539 39.0195 18.3219 38.9916 18.1987 38.9375C18.0755 38.8834 17.9636 38.8041 17.8693 38.7042C17.775 38.6042 17.7002 38.4856 17.6492 38.355C17.5982 38.2244 17.572 38.0844 17.5721 37.9431C17.572 37.8017 17.5982 37.6618 17.6492 37.5312C17.7002 37.4006 17.775 37.2819 17.8693 37.182C17.9636 37.082 18.0755 37.0027 18.1987 36.9486C18.3219 36.8945 18.4539 36.8667 18.5873 36.8667C18.7206 36.8667 18.8527 36.8945 18.9759 36.9486C19.0991 37.0027 19.211 37.082 19.3053 37.182C19.3996 37.2819 19.4743 37.4006 19.5253 37.5312C19.5763 37.6618 19.6025 37.8017 19.6025 37.9431Z" fill="#D9DBE7"/>
<path d="M22.1781 32.4836C22.1781 32.625 22.1519 32.765 22.1009 32.8955C22.0499 33.0261 21.9751 33.1448 21.8809 33.2448C21.7866 33.3447 21.6747 33.424 21.5515 33.4781C21.4283 33.5322 21.2962 33.5601 21.1629 33.5601C21.0295 33.5601 20.8975 33.5322 20.7743 33.4781C20.6511 33.424 20.5392 33.3447 20.4449 33.2448C20.3506 33.1448 20.2758 33.0261 20.2248 32.8955C20.1738 32.765 20.1476 32.625 20.1477 32.4836C20.1476 32.3423 20.1738 32.2024 20.2248 32.0718C20.2758 31.9412 20.3506 31.8225 20.4449 31.7225C20.5392 31.6226 20.6511 31.5433 20.7743 31.4892C20.8975 31.4351 21.0295 31.4072 21.1629 31.4072C21.2962 31.4072 21.4283 31.4351 21.5515 31.4892C21.6747 31.5433 21.7866 31.6226 21.8809 31.7225C21.9751 31.8225 22.0499 31.9412 22.1009 32.0718C22.1519 32.2024 22.1781 32.3423 22.1781 32.4836Z" fill="#D9DBE7"/>
<path d="M22.1781 35.2142C22.1781 35.3555 22.1519 35.4955 22.1009 35.6261C22.0499 35.7567 21.9751 35.8753 21.8809 35.9753C21.7866 36.0752 21.6747 36.1545 21.5515 36.2086C21.4283 36.2627 21.2962 36.2906 21.1629 36.2906C21.0295 36.2906 20.8975 36.2627 20.7743 36.2086C20.6511 36.1545 20.5392 36.0752 20.4449 35.9753C20.3506 35.8753 20.2758 35.7567 20.2248 35.6261C20.1738 35.4955 20.1476 35.3555 20.1477 35.2142C20.1476 35.0728 20.1738 34.9329 20.2248 34.8023C20.2758 34.6717 20.3506 34.553 20.4449 34.4531C20.5392 34.3531 20.6511 34.2738 20.7743 34.2197C20.8975 34.1656 21.0295 34.1378 21.1629 34.1378C21.2962 34.1378 21.4283 34.1656 21.5515 34.2197C21.6747 34.2738 21.7866 34.3531 21.8809 34.4531C21.9751 34.553 22.0499 34.6717 22.1009 34.8023C22.1519 34.9329 22.1781 35.0728 22.1781 35.2142Z" fill="#D9DBE7"/>
<path d="M22.1781 37.9431C22.1781 38.0844 22.1519 38.2244 22.1009 38.355C22.0499 38.4856 21.9751 38.6042 21.8809 38.7042C21.7866 38.8041 21.6747 38.8834 21.5515 38.9375C21.4283 38.9916 21.2962 39.0195 21.1629 39.0195C21.0295 39.0195 20.8975 38.9916 20.7743 38.9375C20.6511 38.8834 20.5392 38.8041 20.4449 38.7042C20.3506 38.6042 20.2758 38.4856 20.2248 38.355C20.1738 38.2244 20.1476 38.0844 20.1477 37.9431C20.1476 37.8017 20.1738 37.6618 20.2248 37.5312C20.2758 37.4006 20.3506 37.2819 20.4449 37.182C20.5392 37.082 20.6511 37.0027 20.7743 36.9486C20.8975 36.8945 21.0295 36.8667 21.1629 36.8667C21.2962 36.8667 21.4283 36.8945 21.5515 36.9486C21.6747 37.0027 21.7866 37.082 21.8809 37.182C21.9751 37.2819 22.0499 37.4006 22.1009 37.5312C22.1519 37.6618 22.1781 37.8017 22.1781 37.9431Z" fill="#D9DBE7"/>
<path d="M24.7537 32.4836C24.7537 32.625 24.7275 32.765 24.6765 32.8955C24.6255 33.0261 24.5507 33.1448 24.4565 33.2448C24.3622 33.3447 24.2502 33.424 24.1271 33.4781C24.0039 33.5322 23.8718 33.5601 23.7385 33.5601C23.6051 33.5601 23.4731 33.5322 23.3499 33.4781C23.2267 33.424 23.1147 33.3447 23.0205 33.2448C22.9262 33.1448 22.8514 33.0261 22.8004 32.8955C22.7494 32.765 22.7232 32.625 22.7233 32.4836C22.7232 32.3423 22.7494 32.2024 22.8004 32.0718C22.8514 31.9412 22.9262 31.8225 23.0205 31.7225C23.1147 31.6226 23.2267 31.5433 23.3499 31.4892C23.4731 31.4351 23.6051 31.4072 23.7385 31.4072C23.8718 31.4072 24.0039 31.4351 24.1271 31.4892C24.2502 31.5433 24.3622 31.6226 24.4565 31.7225C24.5507 31.8225 24.6255 31.9412 24.6765 32.0718C24.7275 32.2024 24.7537 32.3423 24.7537 32.4836Z" fill="#D9DBE7"/>
<path d="M24.7537 35.2142C24.7537 35.3555 24.7275 35.4955 24.6765 35.6261C24.6255 35.7567 24.5507 35.8753 24.4565 35.9753C24.3622 36.0752 24.2502 36.1545 24.1271 36.2086C24.0039 36.2627 23.8718 36.2906 23.7385 36.2906C23.6051 36.2906 23.4731 36.2627 23.3499 36.2086C23.2267 36.1545 23.1147 36.0752 23.0205 35.9753C22.9262 35.8753 22.8514 35.7567 22.8004 35.6261C22.7494 35.4955 22.7232 35.3555 22.7233 35.2142C22.7232 35.0728 22.7494 34.9329 22.8004 34.8023C22.8514 34.6717 22.9262 34.553 23.0205 34.4531C23.1147 34.3531 23.2267 34.2738 23.3499 34.2197C23.4731 34.1656 23.6051 34.1378 23.7385 34.1378C23.8718 34.1378 24.0039 34.1656 24.1271 34.2197C24.2502 34.2738 24.3622 34.3531 24.4565 34.4531C24.5507 34.553 24.6255 34.6717 24.6765 34.8023C24.7275 34.9329 24.7537 35.0728 24.7537 35.2142Z" fill="#D9DBE7"/>
<path d="M24.7537 37.9431C24.7537 38.0844 24.7275 38.2244 24.6765 38.355C24.6255 38.4856 24.5507 38.6042 24.4565 38.7042C24.3622 38.8041 24.2502 38.8834 24.1271 38.9375C24.0039 38.9916 23.8718 39.0195 23.7385 39.0195C23.6051 39.0195 23.4731 38.9916 23.3499 38.9375C23.2267 38.8834 23.1147 38.8041 23.0205 38.7042C22.9262 38.6042 22.8514 38.4856 22.8004 38.355C22.7494 38.2244 22.7232 38.0844 22.7233 37.9431C22.7232 37.8017 22.7494 37.6618 22.8004 37.5312C22.8514 37.4006 22.9262 37.2819 23.0205 37.182C23.1147 37.082 23.2267 37.0027 23.3499 36.9486C23.4731 36.8945 23.6051 36.8667 23.7385 36.8667C23.8718 36.8667 24.0039 36.8945 24.1271 36.9486C24.2502 37.0027 24.3622 37.082 24.4565 37.182C24.5507 37.2819 24.6255 37.4006 24.6765 37.5312C24.7275 37.6618 24.7537 37.8017 24.7537 37.9431Z" fill="#D9DBE7"/>
<path d="M24.7537 29.7547C24.7537 29.8961 24.7275 30.036 24.6765 30.1666C24.6255 30.2972 24.5507 30.4159 24.4565 30.5158C24.3622 30.6158 24.2502 30.6951 24.1271 30.7492C24.0039 30.8033 23.8718 30.8311 23.7385 30.8311C23.6051 30.8311 23.4731 30.8033 23.3499 30.7492C23.2267 30.6951 23.1147 30.6158 23.0205 30.5158C22.9262 30.4159 22.8514 30.2972 22.8004 30.1666C22.7494 30.036 22.7232 29.8961 22.7233 29.7547C22.7232 29.6134 22.7494 29.4734 22.8004 29.3428C22.8514 29.2122 22.9262 29.0936 23.0205 28.9936C23.1147 28.8937 23.2267 28.8144 23.3499 28.7603C23.4731 28.7062 23.6051 28.6783 23.7385 28.6783C23.8718 28.6783 24.0039 28.7062 24.1271 28.7603C24.2502 28.8144 24.3622 28.8937 24.4565 28.9936C24.5507 29.0936 24.6255 29.2122 24.6765 29.3428C24.7275 29.4734 24.7537 29.6134 24.7537 29.7547Z" fill="#D9DBE7"/>
<path d="M24.7537 40.6736C24.7537 40.8149 24.7275 40.9549 24.6765 41.0855C24.6255 41.2161 24.5507 41.3347 24.4565 41.4347C24.3622 41.5347 24.2502 41.614 24.1271 41.6681C24.0039 41.7222 23.8718 41.75 23.7385 41.75C23.6051 41.75 23.4731 41.7222 23.3499 41.6681C23.2267 41.614 23.1147 41.5347 23.0205 41.4347C22.9262 41.3347 22.8514 41.2161 22.8004 41.0855C22.7494 40.9549 22.7232 40.8149 22.7233 40.6736C22.7232 40.5323 22.7494 40.3923 22.8004 40.2617C22.8514 40.1311 22.9262 40.0124 23.0205 39.9125C23.1147 39.8125 23.2267 39.7332 23.3499 39.6791C23.4731 39.625 23.6051 39.5972 23.7385 39.5972C23.8718 39.5972 24.0039 39.625 24.1271 39.6791C24.2502 39.7332 24.3622 39.8125 24.4565 39.9125C24.5507 40.0124 24.6255 40.1311 24.6765 40.2617C24.7275 40.3923 24.7537 40.5323 24.7537 40.6736Z" fill="#D9DBE7"/>
<path d="M27.3293 32.4836C27.3293 32.625 27.3031 32.765 27.2521 32.8955C27.2011 33.0261 27.1263 33.1448 27.032 33.2448C26.9378 33.3447 26.8258 33.424 26.7026 33.4781C26.5794 33.5322 26.4474 33.5601 26.314 33.5601C26.1807 33.5601 26.0487 33.5322 25.9255 33.4781C25.8023 33.424 25.6903 33.3447 25.5961 33.2448C25.5018 33.1448 25.427 33.0261 25.376 32.8955C25.325 32.765 25.2988 32.625 25.2988 32.4836C25.2988 32.3423 25.325 32.2024 25.376 32.0718C25.427 31.9412 25.5018 31.8225 25.5961 31.7225C25.6903 31.6226 25.8023 31.5433 25.9255 31.4892C26.0487 31.4351 26.1807 31.4072 26.314 31.4072C26.4474 31.4072 26.5794 31.4351 26.7026 31.4892C26.8258 31.5433 26.9378 31.6226 27.032 31.7225C27.1263 31.8225 27.2011 31.9412 27.2521 32.0718C27.3031 32.2024 27.3293 32.3423 27.3293 32.4836Z" fill="#D9DBE7"/>
<path d="M27.3293 35.2142C27.3293 35.3555 27.3031 35.4955 27.2521 35.6261C27.2011 35.7567 27.1263 35.8753 27.032 35.9753C26.9378 36.0752 26.8258 36.1545 26.7026 36.2086C26.5794 36.2627 26.4474 36.2906 26.314 36.2906C26.1807 36.2906 26.0487 36.2627 25.9255 36.2086C25.8023 36.1545 25.6903 36.0752 25.5961 35.9753C25.5018 35.8753 25.427 35.7567 25.376 35.6261C25.325 35.4955 25.2988 35.3555 25.2988 35.2142C25.2988 35.0728 25.325 34.9329 25.376 34.8023C25.427 34.6717 25.5018 34.553 25.5961 34.4531C25.6903 34.3531 25.8023 34.2738 25.9255 34.2197C26.0487 34.1656 26.1807 34.1378 26.314 34.1378C26.4474 34.1378 26.5794 34.1656 26.7026 34.2197C26.8258 34.2738 26.9378 34.3531 27.032 34.4531C27.1263 34.553 27.2011 34.6717 27.2521 34.8023C27.3031 34.9329 27.3293 35.0728 27.3293 35.2142Z" fill="#D9DBE7"/>
<path d="M27.3293 37.9431C27.3293 38.0844 27.3031 38.2244 27.2521 38.355C27.2011 38.4856 27.1263 38.6042 27.032 38.7042C26.9378 38.8041 26.8258 38.8834 26.7026 38.9375C26.5794 38.9916 26.4474 39.0195 26.314 39.0195C26.1807 39.0195 26.0487 38.9916 25.9255 38.9375C25.8023 38.8834 25.6903 38.8041 25.5961 38.7042C25.5018 38.6042 25.427 38.4856 25.376 38.355C25.325 38.2244 25.2988 38.0844 25.2988 37.9431C25.2988 37.8017 25.325 37.6618 25.376 37.5312C25.427 37.4006 25.5018 37.2819 25.5961 37.182C25.6903 37.082 25.8023 37.0027 25.9255 36.9486C26.0487 36.8945 26.1807 36.8667 26.314 36.8667C26.4474 36.8667 26.5794 36.8945 26.7026 36.9486C26.8258 37.0027 26.9378 37.082 27.032 37.182C27.1263 37.2819 27.2011 37.4006 27.2521 37.5312C27.3031 37.6618 27.3293 37.8017 27.3293 37.9431Z" fill="#D9DBE7"/>
<path d="M29.9048 35.2142C29.9049 35.3555 29.8787 35.4955 29.8277 35.6261C29.7767 35.7567 29.7019 35.8753 29.6076 35.9753C29.5134 36.0752 29.4014 36.1545 29.2782 36.2086C29.155 36.2627 29.023 36.2906 28.8896 36.2906C28.7563 36.2906 28.6242 36.2627 28.501 36.2086C28.3778 36.1545 28.2659 36.0752 28.1716 35.9753C28.0774 35.8753 28.0026 35.7567 27.9516 35.6261C27.9006 35.4955 27.8744 35.3555 27.8744 35.2142C27.8744 35.0728 27.9006 34.9329 27.9516 34.8023C28.0026 34.6717 28.0774 34.553 28.1716 34.4531C28.2659 34.3531 28.3778 34.2738 28.501 34.2197C28.6242 34.1656 28.7563 34.1378 28.8896 34.1378C29.023 34.1378 29.155 34.1656 29.2782 34.2197C29.4014 34.2738 29.5134 34.3531 29.6076 34.4531C29.7019 34.553 29.7767 34.6717 29.8277 34.8023C29.8787 34.9329 29.9049 35.0728 29.9048 35.2142Z" fill="#D9DBE7"/>
<path fill-rule="evenodd" clip-rule="evenodd" d="M15.7322 15.3309C15.244 19.3207 11.5084 22.011 11.5376 25.864C11.5071 27.8781 13.1237 30.9727 16.313 30.857C18.0073 30.833 19.3758 30.0832 20.2404 28.9791C21.8375 26.7902 21.3377 23.9868 20.3116 21.6626C19.1444 19.2421 17.1151 17.3288 15.7322 15.3309Z" fill="#D9DBE7"/>
<path fill-rule="evenodd" clip-rule="evenodd" d="M17.6984 20.5299C17.6032 21.3084 16.8743 21.8332 16.88 22.585C16.8741 22.9779 17.1895 23.5817 17.8117 23.5591C18.1423 23.5544 18.4093 23.4081 18.578 23.1927C18.8896 22.7657 18.7795 22.2187 18.5793 21.7652C18.3516 21.293 17.9682 20.9197 17.6984 20.5299Z" fill="#D9DBE7"/>
<path d="M111.335 19.8828L107.994 30.3002V30.9436H110.66V33.3909H107.994V35.8345H103.567V33.3909H101.005V30.9436H103.567V30.3002L99.7576 19.8828H104.06L105.835 25.588L107.491 19.8828" fill="#D9DBE7"/>
<path d="M41.4853 16.2017H46.3813V21.7931L49.6431 16.2017H55.0075L50.9215 22.6589L54.3346 28.0628H55.7639V32.1534H51.7839V30.4472H50.0564L46.3813 24.7032V30.4472H41.4853V16.2017Z" fill="#D9DBE7"/>
<path d="M80.4621 16.2017H87.0177L89.5475 24.9121L92.0663 16.2017H98.5999V30.5173H94.5302V19.5999L91.3734 30.5173H87.6887L84.5429 19.5999V30.5173H80.4621V16.2017Z" fill="#D9DBE7"/>
<path d="M112.879 19.8828H116.948V23.2822H119.615V19.8828H123.684V30.1083H119.615V25.7899H116.948V30.1083H112.879V19.8828Z" fill="#D9DBE7"/>
<path d="M148.768 19.8828V30.1083H145.349V24.6669L141.901 30.1083H138.349V19.8828H141.768V25.3242L145.215 19.8828H148.768Z" fill="#D9DBE7"/>
<path d="M140.278 15.3837H141.756C141.832 15.8335 142.039 16.1774 142.377 16.4152C142.721 16.653 143.179 16.7719 143.751 16.7718C144.323 16.7719 144.778 16.653 145.116 16.4152C145.46 16.1774 145.671 15.8335 145.746 15.3837H147.224C147.183 16.3091 146.863 17.0193 146.263 17.5141C145.664 18.0026 144.826 18.2468 143.751 18.2468C142.676 18.2468 141.839 18.0026 141.239 17.5141C140.64 17.0193 140.319 16.3091 140.278 15.3837Z" fill="#D9DBE7"/>
<path d="M151.47 30.1083V16.2017H162.275V19.7832H156.42V30.1083H151.47Z" fill="#D9DBE7"/>
<path d="M175.342 23.9534C175.92 23.9553 176.494 24.0084 177.029 23.961C179.076 23.7725 179.046 22.0987 176.981 21.9619C175.948 21.9635 174.57 22.3583 173.875 22.6774V20.3499C175.315 20.0643 177.039 19.8505 178.56 19.8869C180.462 19.9833 183.027 20.0792 183.237 22.5605C183.237 23.7467 182.552 24.4926 181.181 24.7981C182.727 25.1636 183.5 26.0203 183.5 27.3682C183.403 30.0134 180.719 30.2689 178.744 30.4748C177.007 30.6097 175.506 30.4177 173.852 29.9833V27.0208C174.978 27.4398 176.195 28.0447 177.432 27.8375C179.405 27.448 179.288 26.1934 177.337 25.9067C176.673 25.8521 175.938 25.9394 175.342 25.9394V23.9534Z" fill="#D9DBE7"/>
<path d="M166.433 19.8836C164.956 19.8678 163.495 20.0972 162.051 20.3986V22.8677C163.228 22.24 164.518 22.0879 165.815 22.0346C166.868 21.946 168.427 22.3518 168.43 23.7766H166.433C164.602 23.7766 163.255 24.0557 162.396 24.6097C161.543 25.1637 161.117 26.0288 161.117 27.2151C161.117 28.1906 161.47 28.9791 162.152 29.5933C162.84 30.2015 163.725 30.5173 164.824 30.5173C165.638 30.5173 166.324 30.3702 166.893 30.0932C167.461 29.8101 167.975 29.3593 168.43 28.745V30.2447H172.309V24.4734C172.309 22.8535 171.882 21.6909 171.03 20.9743C170.184 20.2517 168.346 19.8836 166.433 19.8836ZM168.43 25.7003C168.502 26.4978 168.088 26.9883 167.647 27.6069C166.582 28.2987 165.638 28.0309 165.527 26.9044C165.666 25.581 166.852 25.5424 168.43 25.7003Z" fill="#D9DBE7"/>
<path d="M70.7605 23.9534C71.3387 23.9553 71.9124 24.0084 72.4474 23.961C74.494 23.7725 74.4644 22.0987 72.3992 21.9619C71.367 21.9635 69.989 22.3583 69.2939 22.6774V20.3499C70.7332 20.0643 72.4579 19.8505 73.9787 19.8869C75.88 19.9833 78.4454 20.0792 78.6557 22.5605C78.6557 23.7467 77.9704 24.4926 76.5999 24.7981C78.1456 25.1636 78.9185 26.0203 78.9185 27.3682C78.8215 30.0134 76.1376 30.2689 74.1628 30.4748C72.4255 30.6097 70.9248 30.4177 69.2708 29.9833V27.0208C70.3963 27.4398 71.6136 28.0447 72.8507 27.8375C74.8239 27.448 74.707 26.1934 72.7558 25.9067C72.0918 25.8521 71.3564 25.9394 70.7605 25.9394V23.9534Z" fill="#D9DBE7"/>
<path d="M61.8513 19.8836C60.3743 19.8678 58.9139 20.0972 57.4696 20.3986V22.8677C58.6467 22.24 59.9361 22.0879 61.2335 22.0346C62.2864 21.946 63.846 22.3518 63.8482 23.7766H61.8513C60.0202 23.7766 58.6731 24.0557 57.8144 24.6097C56.9619 25.1637 56.5357 26.0288 56.5358 27.2151C56.5358 28.1906 56.8882 28.9791 57.5701 29.5933C58.2584 30.2015 59.1436 30.5173 60.2423 30.5173C61.0568 30.5173 61.7427 30.3702 62.311 30.0932C62.8793 29.8101 63.3936 29.3593 63.8482 28.745V30.2447H67.7271V24.4734C67.7271 22.8535 67.3009 21.6909 66.4485 20.9743C65.6024 20.2517 63.7645 19.8836 61.8513 19.8836ZM63.8482 25.7003C63.9206 26.4978 63.507 26.9883 63.0651 27.6069C62.0006 28.2987 61.0565 28.0309 60.9458 26.9044C61.0843 25.581 62.2705 25.5424 63.8482 25.7003Z" fill="#D9DBE7"/>
<path d="M130.929 19.8836C129.452 19.8678 127.992 20.0972 126.547 20.3986V22.8677C127.725 22.24 129.014 22.0879 130.311 22.0346C131.364 21.946 132.924 22.3518 132.926 23.7766H130.929C129.098 23.7766 127.751 24.0557 126.892 24.6097C126.04 25.1637 125.614 26.0288 125.614 27.2151C125.614 28.1906 125.966 28.9791 126.648 29.5933C127.336 30.2015 128.221 30.5173 129.32 30.5173C130.135 30.5173 130.821 30.3702 131.389 30.0932C131.957 29.8101 132.471 29.3593 132.926 28.745V30.2447H136.805V24.4734C136.805 22.8535 136.379 21.6909 135.526 20.9743C134.68 20.2517 132.842 19.8836 130.929 19.8836ZM132.926 25.7003C132.998 26.4978 132.585 26.9883 132.143 27.6069C131.078 28.2987 130.134 28.0309 130.024 26.9044C130.162 25.581 131.348 25.5424 132.926 25.7003Z" fill="#D9DBE7"/>
</svg>
