<svg width="189" height="38" viewBox="0 0 189 38" fill="none" xmlns="http://www.w3.org/2000/svg">
<path fill-rule="evenodd" clip-rule="evenodd" d="M37.2184 13.0274L37.0754 13.1102C35.1319 9.77482 31.865 7.18461 28.3835 6.26207C24.9019 5.33953 20.4546 5.87177 17.0923 7.79964L17.0089 7.65771L28.8127 0.904236C28.9438 0.833271 29.0988 0.785962 29.2419 0.762307C29.3969 0.738652 29.5519 0.750479 29.695 0.785962C29.85 0.833271 29.9811 0.892409 30.1004 0.987028C30.2196 1.08165 30.3269 1.19992 30.3985 1.33002L37.2184 13.0274ZM7.01737 6.79431L7.16045 6.8771C5.20507 10.2124 4.56123 14.3047 5.4793 17.7584C6.39737 21.212 9.06814 24.772 12.4304 26.7117L12.347 26.8537L0.57893 20.0411C0.447776 19.9701 0.328546 19.8636 0.233162 19.7454C0.1497 19.6271 0.0781622 19.4852 0.042393 19.3432C-0.00529913 19.2013 -0.00529913 19.0475 0.00662391 18.8938C0.03047 18.74 0.0781622 18.5981 0.161623 18.468C0.161623 18.468 7.01737 6.80613 7.01737 6.79431ZM16.6273 37.1317H16.6154L16.6273 36.9661C20.5143 37.0016 24.4131 35.5232 26.9765 33.0276C29.5519 30.5202 31.3523 26.4515 31.3761 22.5958H31.5431L31.4238 36.1027C31.4238 36.2565 31.3881 36.3984 31.3285 36.5403C31.2688 36.6823 31.1854 36.8124 31.0781 36.9188C30.9708 37.0253 30.8396 37.1081 30.6965 37.1672C30.5535 37.2145 30.3985 37.25 30.2554 37.25L16.6273 37.1317Z" fill="#D9DBE7"/>
<path fill-rule="evenodd" clip-rule="evenodd" d="M23.6381 1.67302V1.8386C19.7512 1.82678 15.8523 3.32886 13.3008 5.84811C10.7493 8.36736 8.98467 12.4597 8.97275 16.3036H8.81775L8.8416 2.79663C8.8416 2.64287 8.87737 2.50094 8.92506 2.35901C8.98468 2.21708 9.08006 2.08698 9.18737 1.98053C9.29467 1.87409 9.4139 1.7913 9.55698 1.73216C9.70006 1.67302 9.85506 1.64937 10.0101 1.64937L23.6381 1.67302ZM3.90546 24.8785L4.04853 24.8075C5.96814 28.1547 9.22313 30.7567 12.6927 31.7029C16.1743 32.6491 20.6216 32.1405 24.0077 30.2363L24.0792 30.3782L12.2397 37.0608C12.0966 37.1317 11.9535 37.179 11.7985 37.2027C11.6554 37.2145 11.5004 37.2027 11.3574 37.1672C11.2024 37.1199 11.0712 37.0608 10.952 36.9661C10.8208 36.8715 10.7254 36.7532 10.6539 36.6231L3.90546 24.8785ZM34.0708 31.3244V31.3363L33.9396 31.2535C35.9188 27.93 36.5865 23.8495 35.6923 20.3841C34.7981 16.9186 32.1392 13.3467 28.8008 11.3834L28.8723 11.2414L40.6046 18.125C40.7357 18.2078 40.855 18.3024 40.9504 18.4207C41.0338 18.5508 41.1054 18.6809 41.1411 18.8347C41.1769 18.9766 41.1888 19.1303 41.165 19.2841C41.1411 19.426 41.0934 19.5798 41.01 19.7099L34.0708 31.3244Z" fill="#D9DBE7"/>
<path fill-rule="evenodd" clip-rule="evenodd" d="M68.5164 33.8792H68.1349L65.9053 30.6385V33.8792H65.5357V30.189H66.0364L68.1349 33.2523V30.189H68.5164V33.8792ZM74.4064 33.8792H74.001L73.4645 32.6373H71.7356L71.1991 33.8792H70.7937L72.4033 30.189H72.8087L74.4064 33.8792ZM73.3214 32.3061L72.606 30.6148L71.8787 32.3061H73.3214ZM77.9595 30.5202H77.101V33.8792H76.7314V30.5202H75.8849V30.189H77.9595V30.5202ZM80.2249 30.1772H80.5945V33.8792H80.2249V30.1772ZM86.9971 31.9986C86.9971 32.5506 86.8064 33.0118 86.4248 33.3824C86.0512 33.7451 85.5823 33.9265 85.0179 33.9265C84.4615 33.9265 83.9925 33.7491 83.611 33.3942C83.2374 33.0315 83.0506 32.5782 83.0506 32.0341C83.0506 31.4821 83.2374 31.0209 83.611 30.6503C83.9925 30.2876 84.4615 30.1062 85.0179 30.1062C85.5823 30.1062 86.0512 30.2836 86.4248 30.6385C86.8064 31.0012 86.9971 31.4545 86.9971 31.9986ZM86.6156 31.9986C86.6156 31.5413 86.4646 31.1667 86.1625 30.875C85.8605 30.5833 85.4829 30.4374 85.0298 30.4374C84.5688 30.4374 84.1873 30.5911 83.8852 30.8987C83.5752 31.1983 83.4202 31.5768 83.4202 32.0341C83.4202 32.4914 83.5712 32.866 83.8733 33.1577C84.1833 33.4494 84.5688 33.5953 85.0298 33.5953C85.4829 33.5953 85.8605 33.4455 86.1625 33.1459C86.4646 32.8462 86.6156 32.4638 86.6156 31.9986ZM92.4221 33.8673H92.0406L89.811 30.6266V33.8673H89.4294V30.1772H89.9421L92.0406 33.2405V30.1772H92.4221V33.8673ZM97.9067 33.8673L97.3702 32.6255H95.6413L95.0929 33.8673H94.6994L96.2971 30.1772H96.7144L98.3121 33.8673H97.9067ZM97.2152 32.2943L96.4998 30.603L95.7844 32.2943H97.2152ZM102.485 33.8673H100.577V30.1772H100.947V33.5362H102.485V33.8673ZM110.402 33.8673H109.997L109.46 32.6255H107.731L107.183 33.8673H106.789L108.387 30.1654H108.804L110.402 33.8673ZM109.317 32.2943L108.602 30.603L107.874 32.2943H109.317ZM113.955 30.5084H113.109V33.8673H112.727V30.5084H111.881V30.1772H113.955V30.5084ZM119.583 31.9986C119.583 32.5506 119.396 33.0118 119.022 33.3824C118.641 33.753 118.172 33.9383 117.616 33.9383C117.059 33.9383 116.59 33.757 116.209 33.3942C115.827 33.0394 115.636 32.586 115.636 32.0341C115.636 31.4821 115.827 31.0248 116.209 30.6621C116.582 30.2915 117.051 30.1062 117.616 30.1062C118.172 30.1062 118.641 30.2876 119.022 30.6503C119.396 31.0051 119.583 31.4545 119.583 31.9986ZM119.213 31.9986C119.213 31.5413 119.062 31.1707 118.76 30.8868C118.458 30.5951 118.077 30.4492 117.616 30.4492C117.162 30.4492 116.781 30.599 116.471 30.8987C116.169 31.1983 116.014 31.5768 116.006 32.0341C116.014 32.4914 116.169 32.866 116.471 33.1577C116.773 33.4494 117.154 33.5953 117.616 33.5953C118.077 33.5953 118.458 33.4455 118.76 33.1459C119.062 32.8462 119.213 32.4638 119.213 31.9986ZM125.914 33.8673H125.544V30.5911L124.125 33.8673H123.815L122.397 30.5911V33.8673H122.027V30.1772H122.599L123.97 33.3233L125.342 30.1772H125.914V33.8673ZM128.513 30.1772H128.895V33.8673H128.513V30.1772ZM134.999 32.9093C134.96 32.9803 134.916 33.0513 134.868 33.1222C134.813 33.2011 134.757 33.272 134.701 33.3351C134.638 33.3982 134.574 33.4573 134.51 33.5125C134.439 33.5677 134.367 33.619 134.296 33.6663C134.224 33.7057 134.149 33.7451 134.069 33.7846C133.982 33.8161 133.898 33.8437 133.819 33.8673C133.731 33.891 133.644 33.9068 133.557 33.9147C133.469 33.9304 133.386 33.9383 133.306 33.9383C132.75 33.9383 132.285 33.757 131.911 33.3942C131.53 33.0315 131.339 32.5703 131.339 32.0104C131.339 31.4664 131.526 31.013 131.899 30.6503C132.265 30.2876 132.722 30.1062 133.27 30.1062C133.66 30.1062 134.002 30.1969 134.296 30.3782C134.375 30.4177 134.447 30.465 134.51 30.5202C134.582 30.5754 134.646 30.6345 134.701 30.6976C134.757 30.7607 134.809 30.8277 134.856 30.8987C134.904 30.9696 134.948 31.0445 134.987 31.1234H134.546C134.522 31.084 134.495 31.0445 134.463 31.0051C134.439 30.9736 134.411 30.9381 134.379 30.8987C134.348 30.8671 134.316 30.8356 134.284 30.804C134.252 30.7804 134.216 30.7528 134.177 30.7212C133.922 30.5399 133.62 30.4492 133.27 30.4492C132.817 30.4492 132.444 30.599 132.15 30.8987C131.856 31.2062 131.709 31.5768 131.709 32.0104C131.709 32.4599 131.864 32.8384 132.174 33.1459C132.476 33.4455 132.853 33.5953 133.306 33.5953C133.362 33.5953 133.418 33.5953 133.473 33.5953C133.537 33.5874 133.596 33.5756 133.652 33.5598C133.708 33.5441 133.763 33.5243 133.819 33.5007C133.875 33.4849 133.93 33.4613 133.986 33.4297C134.224 33.3115 134.415 33.138 134.558 32.9093H134.999ZM143.298 32.9093C143.258 32.9803 143.21 33.0513 143.155 33.1222C143.107 33.2011 143.051 33.272 142.988 33.3351C142.932 33.3982 142.868 33.4573 142.797 33.5125C142.733 33.5677 142.662 33.619 142.582 33.6663C142.511 33.7057 142.435 33.7451 142.356 33.7846C142.276 33.8161 142.193 33.8437 142.105 33.8673C142.026 33.891 141.942 33.9068 141.855 33.9147C141.768 33.9304 141.68 33.9383 141.593 33.9383C141.036 33.9383 140.571 33.757 140.198 33.3942C139.816 33.0315 139.625 32.5703 139.625 32.0104C139.625 31.4664 139.812 31.013 140.186 30.6503C140.559 30.2876 141.016 30.1062 141.557 30.1062C141.946 30.1062 142.292 30.1969 142.594 30.3782C142.896 30.5517 143.127 30.8001 143.286 31.1234H142.833C142.809 31.084 142.785 31.0445 142.761 31.0051C142.729 30.9736 142.698 30.9381 142.666 30.8987C142.642 30.8671 142.61 30.8356 142.57 30.804C142.539 30.7804 142.503 30.7528 142.463 30.7212C142.209 30.5399 141.911 30.4492 141.569 30.4492C141.108 30.4492 140.73 30.599 140.436 30.8987C140.365 30.9775 140.301 31.0603 140.245 31.147C140.19 31.2259 140.146 31.3166 140.114 31.4191C140.075 31.5137 140.047 31.6083 140.031 31.7029C140.007 31.8054 139.995 31.9079 139.995 32.0104C140.003 32.4599 140.158 32.8384 140.46 33.1459C140.77 33.4455 141.148 33.5953 141.593 33.5953C141.831 33.5953 142.058 33.5401 142.272 33.4297C142.511 33.3115 142.706 33.138 142.857 32.9093H143.298ZM149.522 31.9986C149.522 32.5506 149.331 33.0118 148.949 33.3824C148.576 33.753 148.107 33.9383 147.542 33.9383C146.986 33.9383 146.521 33.757 146.147 33.3942C145.766 33.0394 145.575 32.586 145.575 32.0341C145.575 31.4821 145.762 31.0248 146.135 30.6621C146.517 30.2915 146.986 30.1062 147.542 30.1062C148.107 30.1062 148.576 30.2876 148.949 30.6503C149.331 31.0051 149.522 31.4545 149.522 31.9986ZM149.152 31.9986C149.152 31.5413 149.001 31.1707 148.699 30.8868C148.389 30.5951 148.007 30.4492 147.554 30.4492C147.093 30.4492 146.712 30.599 146.41 30.8987C146.1 31.1983 145.945 31.5768 145.945 32.0341C145.945 32.4914 146.1 32.866 146.41 33.1577C146.712 33.4494 147.093 33.5953 147.554 33.5953C148.007 33.5953 148.389 33.4455 148.699 33.1459C149.001 32.8462 149.152 32.4638 149.152 31.9986ZM155.853 33.8673H155.483V30.5911L154.064 33.8673H153.754L152.335 30.5911V33.8673H151.966V30.1772H152.538L153.909 33.3233L155.28 30.1772H155.853V33.8673ZM160.908 31.289C160.908 31.5965 160.813 31.8488 160.622 32.0459C160.391 32.2746 160.058 32.3889 159.62 32.3889H158.81V33.8673H158.44V30.1772H159.62C160.105 30.1772 160.455 30.3073 160.67 30.5675C160.829 30.7567 160.908 30.9972 160.908 31.289ZM160.527 31.289C160.527 31.0682 160.463 30.8868 160.336 30.7449C160.177 30.5872 159.938 30.5084 159.62 30.5084H158.81V32.0577H159.62C159.93 32.0577 160.165 31.975 160.324 31.8094C160.459 31.6753 160.527 31.5019 160.527 31.289ZM166.023 33.8673H165.618L165.081 32.6255H163.34L162.804 33.8673H162.398L164.008 30.1772H164.425L166.023 33.8673ZM164.926 32.2943L164.211 30.603L163.495 32.2943H164.926ZM171.269 33.8673H170.9L168.658 30.6266V33.8673H168.288V30.1772H168.789L170.9 33.2405V30.1772H171.269V33.8673ZM176.444 30.1654L175.168 32.6255V33.8673H174.798V32.6255L173.523 30.1654H173.928L174.989 32.2352L176.038 30.1654H176.444ZM72.1887 13.5005L77.2918 25.4699H73.7268L72.8564 23.3527H68.2303L67.3718 25.4699H63.8784L68.9933 13.5005H72.1887ZM71.9026 20.7862L70.5672 17.4035L69.208 20.7862H71.9026ZM59.8841 18.6691L63.4968 23.8968L62.8411 25.4344H60.5876L57.583 21.0346L56.3668 22.3947V25.4344H52.9449V13.5478H56.3668V18.4089L60.4803 13.5478H64.4268L59.8841 18.6691ZM96.3925 13.5005L101.496 25.4699H97.9306L97.0602 23.3527H92.434L91.5756 25.4699H88.0821L93.1852 13.5005H96.3925ZM96.0944 20.7862L94.759 17.4154L93.4117 20.7862H96.0944ZM88.3564 22.7141L87.1879 25.4344H78.3887L77.5064 23.3527L83.7541 16.6111H77.9475V13.5478H88.2252V15.9842L82.3352 22.7141H88.3564ZM99.4209 13.5951H109.937V16.481H106.336V25.4699H103.022V16.481H99.4209V13.5951ZM116.578 25.7064C113.013 25.7064 110.128 22.9506 110.128 19.5325C110.128 16.1143 113.013 13.3467 116.578 13.3467C120.155 13.3467 123.04 16.1143 123.04 19.5325C123.04 22.9506 120.155 25.7064 116.578 25.7064ZM119.642 19.5325C119.642 17.7584 118.283 16.3272 116.59 16.3272C114.897 16.3272 113.538 17.7584 113.538 19.5325C113.538 21.3066 114.897 22.7377 116.59 22.7377C118.283 22.7377 119.642 21.3066 119.642 19.5325ZM148.723 17.7938C148.723 20.5969 146.553 22.0754 143.572 22.0754H141.927V25.4699H138.6V13.5951H143.739C146.779 13.5951 148.723 15.1327 148.723 17.7938ZM145.396 17.9121C145.396 16.895 144.681 16.3509 143.489 16.3509H141.927V19.497H143.5C144.681 19.497 145.396 18.882 145.396 17.9121ZM157.951 21.3302L160.813 25.4699H156.973L154.565 21.8743H153.11V25.4699H149.784V13.5951H155.459C157.283 13.5951 158.559 14.0682 159.358 14.8606C160.062 15.5585 160.419 16.4692 160.419 17.6756C160.419 19.497 159.442 20.7034 157.951 21.3302ZM157.081 17.853C157.081 16.9186 156.401 16.4455 155.28 16.4455H153.11V19.2959H155.304C156.437 19.2959 157.081 18.7519 157.081 17.853ZM167.8 25.7064C164.235 25.7064 161.349 22.9506 161.349 19.5325C161.349 16.1143 164.235 13.3467 167.8 13.3467C171.377 13.3467 174.262 16.1143 174.262 19.5325C174.262 22.9506 171.377 25.7064 167.8 25.7064ZM170.864 19.5325C170.864 17.7584 169.505 16.3272 167.812 16.3272C166.118 16.3272 164.759 17.7584 164.759 19.5325C164.759 21.3066 166.118 22.7377 167.812 22.7377C169.505 22.7377 170.864 21.3066 170.864 19.5325ZM133.318 13.5478H136.859V25.4344H133.425V18.6454L130.969 22.7141H129.86L127.261 18.6809V25.4344H124.185V13.5478H127.595L130.457 18.1487L133.318 13.5478Z" fill="#D9DBE7"/>
<path d="M175.576 13.5667H188.25V25.4486H175.577L175.576 13.5667Z" fill="black"/>
<path fill-rule="evenodd" clip-rule="evenodd" d="M188.248 13.5714V25.4462H185.171V18.6691L182.548 22.7377H181.44L179.007 18.7046V25.4462H175.573V13.5714H179.174L182.036 18.1723L184.897 13.5714H188.248Z" fill="#D9DBE7"/>
</svg>
