<svg width="90" height="52" viewBox="0 0 90 52" fill="none" xmlns="http://www.w3.org/2000/svg">
<path d="M0.240114 0.753299C29.7636 0.751649 59.2878 0.757423 88.8113 0.75C88.839 1.11123 88.8198 1.47329 88.8236 1.83535C76.4486 1.86009 64.0752 1.90462 51.7002 1.8972C46.813 1.89967 41.9259 1.91287 37.0395 1.92772C35.1414 2.11328 33.3071 2.80111 31.6325 3.76357C29.6215 4.93468 27.8248 6.51817 26.3299 8.37628C26.1525 8.60886 25.9613 8.83071 25.807 9.08308C46.8084 9.08638 67.8106 9.08473 88.8129 9.0839C88.8036 9.42864 88.8282 9.77503 88.7983 10.1198C81.8863 10.1099 74.9736 10.142 68.0617 10.1321C67.2663 10.1437 66.4708 10.1057 65.6769 10.1577C56.2833 10.1684 46.8875 10.1874 37.4925 10.1965C36.717 10.1734 35.9507 10.3474 35.199 10.5346C33.0767 11.0987 31.1004 12.1997 29.3551 13.601C28.1565 14.575 27.0463 15.6834 26.1003 16.9395C47.0073 16.9576 67.9151 16.9386 88.8221 16.9494C88.8075 17.304 88.7829 17.6595 88.7883 18.0157C84.4117 18.0413 80.0351 18.038 75.6585 18.0512C68.312 18.0743 60.9655 18.0487 53.619 18.0759C48.0715 18.0908 42.5232 18.0949 36.9765 18.118C34.2807 18.4009 31.7346 19.6429 29.5578 21.3378C27.8717 22.6573 26.3775 24.2655 25.1835 26.1047C24.4672 27.2197 23.8552 28.4247 23.4705 29.7187C23.3968 29.9578 23.3607 30.2102 23.2571 30.4378C22.8762 28.4972 21.8996 26.7562 20.7832 25.2016C19.1316 22.9509 17.0546 21.0483 14.6943 19.7048C12.9652 18.7316 11.048 18.0702 9.08311 18.0454C7.0622 17.9564 5.03976 18.0611 3.01809 18.0677C2.09594 18.0916 1.17378 18.1329 0.250863 18.1279C0.214776 17.7353 0.240882 17.3411 0.236275 16.9485C7.00154 16.9403 13.7676 16.956 20.5328 16.9403C18.9074 14.8265 16.9087 13.0294 14.6452 11.7544C13.0213 10.8497 11.2345 10.2138 9.39484 10.1462C6.34813 10.0521 3.30218 10.2113 0.254703 10.2097C0.227829 9.83523 0.249328 9.45916 0.242417 9.08473C7.10136 9.08308 13.9603 9.08638 20.8192 9.08308C20.1082 8.05217 19.259 7.13754 18.3783 6.27322C16.0303 4.0547 13.1664 2.2906 10.0145 1.91287C7.60735 1.77267 5.19716 1.89967 2.78851 1.90132C1.93853 1.91452 1.08702 1.96318 0.237043 1.93184C0.233203 1.53844 0.229364 1.14587 0.240114 0.753299Z" fill="#D9DBE7"/>
<path d="M35.2947 34.3352C36.7213 32.2189 39.0716 30.8919 41.4864 30.7022C43.4052 30.6148 45.41 30.8136 47.1337 31.7942C48.3407 32.5546 49.1562 33.8626 49.7044 35.216C49.8602 35.6589 50.0629 36.1017 50.0837 36.5826C49.3719 36.7714 48.6663 36.9892 47.953 37.1739C47.556 35.8469 46.8089 34.5908 45.7102 33.8164C45.036 33.3307 44.2237 33.1443 43.4313 33.0346C41.5209 32.783 39.4709 33.3125 38.0028 34.6857C37.1697 35.6556 36.6138 36.8737 36.2898 38.1397C35.7001 40.4802 35.8928 43.0419 36.8326 45.2464C37.526 46.7226 38.8351 47.7981 40.2801 48.316C41.0134 48.5989 41.7951 48.6764 42.5667 48.7432C44.4962 48.8034 46.3513 47.9754 47.9161 46.8117C48.0643 45.5779 48.0374 44.3301 48.049 43.088C46.2668 43.0757 44.4847 43.0682 42.7034 43.0336C42.7011 42.2551 42.708 41.4773 42.7003 40.6988C44.9339 40.7359 47.1675 40.6938 49.4019 40.7136C49.699 40.7194 49.9985 40.6971 50.2948 40.7392C50.2749 43.1878 50.4161 45.6348 50.3325 48.0826C50.1367 48.3185 49.871 48.4744 49.6376 48.6632C47.0439 50.5725 43.7553 51.5448 40.6341 50.8892C39.5469 50.6319 38.4596 50.2731 37.5145 49.624C36.137 48.683 35.006 47.3214 34.3096 45.733C33.6807 44.3359 33.5563 42.759 33.5003 41.2307C33.4588 38.8184 33.9548 36.3137 35.2947 34.3352Z" fill="#D9DBE7"/>
<path d="M60.5778 30.7876C60.9541 30.7134 61.3364 30.6829 61.7188 30.6837C61.7058 31.4086 61.7211 32.1344 61.7134 32.8602C60.9902 32.8602 60.2715 33.0193 59.5996 33.3031C58.5654 33.6536 57.6924 34.4255 57.0658 35.3624C56.245 36.5624 55.779 38.0139 55.6454 39.4902C55.4196 41.7302 55.8527 44.0336 56.837 46.0212C57.0343 46.4682 57.373 46.8154 57.6954 47.161C58.7604 48.2686 60.2354 48.8888 61.7165 48.8756C61.7134 49.6657 61.7104 50.4566 61.7173 51.2475C58.9447 51.1478 56.2235 49.5808 54.7286 47.0505C53.1906 44.3083 52.8566 40.8856 53.6014 37.8094C53.9492 36.4445 54.4698 35.0894 55.352 34.0189C56.1728 33.0136 57.1434 32.1352 58.2575 31.5291C58.9823 31.1348 59.7824 30.9394 60.5778 30.7876Z" fill="#D9DBE7"/>
<path d="M61.7308 30.6837C63.05 30.734 64.3668 31.0466 65.5738 31.6239C66.9666 32.2919 68.1821 33.3839 69.0236 34.7521C70.1968 36.6523 70.6951 38.9689 70.6545 41.2312C70.6637 42.8114 70.3796 44.3932 69.8267 45.8579C69.5204 46.7214 69.0566 47.5164 68.4746 48.1968C66.7547 50.1688 64.227 51.222 61.7308 51.25C61.7293 50.4599 61.7293 49.6698 61.7316 48.8797C62.8964 48.7898 64.0282 48.3618 65.0217 47.7094C65.841 47.156 66.5888 46.4459 67.1002 45.5561C67.6715 44.2612 67.9103 42.8196 67.941 41.3953C67.9748 39.7862 67.7475 38.1698 67.2615 36.6465C66.3815 34.3133 64.0512 32.7835 61.7262 32.8635C61.7393 32.1369 61.7255 31.4103 61.7308 30.6837Z" fill="#D9DBE7"/>
<path d="M78.1112 31.5729C79.2253 31.0715 80.4385 30.8274 81.6463 30.8521C83.5213 30.8208 85.4938 31.3931 86.8836 32.8018C87.408 33.3213 87.9071 33.902 88.1796 34.6211C88.4292 35.2529 88.7233 35.8656 88.9444 36.5098C88.1896 36.8743 87.3742 37.0491 86.5611 37.1778C86.0889 35.6768 85.1921 34.2162 83.8015 33.5589C82.4517 33.0046 80.9168 32.9395 79.5447 33.4434C78.6164 33.7947 77.7542 34.4083 77.1645 35.2619C75.9298 37.2726 75.4761 39.7575 75.6457 42.1385C75.7855 43.816 76.2339 45.5018 77.1415 46.8923C78.2095 48.2745 79.9279 48.9286 81.5687 48.922C82.9938 48.9046 84.4588 48.3554 85.4393 47.2123C86.204 46.3661 86.5196 45.209 86.9127 44.1393C87.7082 44.1624 88.4707 44.4527 89.25 44.6012C88.7954 47.4902 86.783 50.1442 84.091 50.8683C82.3941 51.3599 80.5775 51.3516 78.8821 50.8617C77.8502 50.5574 76.8635 50.0452 76.0412 49.3055C75.6227 48.9516 75.3302 48.4659 75.0307 48.0016C73.7316 45.8927 73.082 43.3435 73.135 40.8206C73.135 38.8248 73.5864 36.8256 74.4433 35.0549C75.2964 33.5399 76.5126 32.1478 78.1112 31.5729Z" fill="#D9DBE7"/>
<path d="M17.2043 31.0289C21.6216 31.0141 26.0388 31.0248 30.4561 31.0305C30.4638 31.8577 30.4507 32.6858 30.463 33.5138C27.6651 33.5361 24.8648 33.4957 22.0661 33.5006C21.253 33.4495 20.4383 33.4808 19.6252 33.4726C19.593 34.3286 19.6237 35.1847 19.6206 36.0424C19.5722 37.1484 19.6552 38.256 19.6037 39.3636C21.445 39.4263 23.2893 39.3842 25.1313 39.3908C26.6876 39.3801 28.2432 39.376 29.7988 39.3628C29.795 40.204 29.7912 41.0452 29.8011 41.8865C27.4524 41.8725 25.1044 41.8848 22.7556 41.8848C21.7221 41.9005 20.6871 41.851 19.6552 41.9153C19.6797 44.1042 19.7081 46.2922 19.7005 48.4818C23.4275 48.4282 27.1552 48.4686 30.883 48.4365C30.8723 49.2439 30.8738 50.0505 30.8822 50.8579C28.8406 50.7985 26.7967 50.8496 24.755 50.8092C22.2519 50.829 19.7473 50.7969 17.2465 50.8101C17.235 46.1635 17.2511 41.5104 17.2212 36.868C17.2004 34.9216 17.2097 32.9753 17.2043 31.0289Z" fill="#D9DBE7"/>
<path d="M0.0838249 31.0664C0.866234 31.0623 1.64941 31.0739 2.43259 31.0598C2.4871 34.2186 2.45639 37.3814 2.48096 40.5409C3.22498 39.8144 3.91909 39.0292 4.64545 38.282C6.92511 35.8837 9.1825 33.4598 11.4652 31.0648C12.5202 31.0714 13.576 31.0582 14.631 31.0714C13.4631 32.5171 12.1616 33.8293 10.8963 35.1752C9.66316 36.447 8.42697 37.7138 7.20613 38.9987C9.85127 42.9087 12.5087 46.8089 15.1677 50.7082C14.0797 50.7453 12.9901 50.7495 11.9006 50.7585C9.69157 47.5272 7.61 44.197 5.38486 40.9781C4.54026 41.7673 3.75554 42.6283 2.94012 43.4506C2.76506 43.6477 2.5301 43.7953 2.39957 44.032C2.44027 46.2819 2.42568 48.5351 2.45639 50.7866C1.65555 50.8484 0.847039 50.8303 0.0438982 50.8154C0.0339165 50.3429 0.0538799 49.8695 0.0154889 49.3977C-0.0336517 46.54 0.0508086 43.6832 0.0400591 40.8255C0.0554155 37.5727 0.0615581 34.3192 0.0838249 31.0664Z" fill="#D9DBE7"/>
</svg>
