<svg width="206" height="32" viewBox="0 0 206 32" fill="none" xmlns="http://www.w3.org/2000/svg">
<path fill-rule="evenodd" clip-rule="evenodd" d="M63.9276 14.7469H64.0411L68.0153 10.598H71.5353L67.1069 14.9653L70.854 19.9876H71.9895V23.2631H69.8321V21.2978H68.2424L65.063 16.9305L63.9276 18.0224V21.2978H60.9753V10.598H63.9276V14.7469ZM76.5315 17.4764H79.1431L78.0076 14.201L77.8941 13.1092H77.7805L77.667 14.201L76.5315 17.4764ZM75.9637 19.4417L75.2824 21.2978H72.2166L76.4179 10.598H79.3702L83.4579 21.2978H80.3921L79.8244 19.4417H75.9637ZM84.5934 17.4764H87.5457C87.5457 18.3499 87.7728 18.8958 88.3405 19.1142C88.9083 19.3325 89.3625 19.4417 89.9302 19.4417C90.498 19.4417 90.9522 19.4417 91.4064 19.2233C91.8606 19.005 92.0876 18.6774 92.0876 18.1315C92.0876 17.5856 91.9741 17.1489 91.6335 17.0397C91.2928 16.8214 90.8386 16.8214 90.3844 16.8214H88.7947V14.9653H90.0438C90.3844 14.9653 90.7251 14.8561 91.0657 14.7469C91.4064 14.5285 91.6335 14.201 91.6335 13.7643C91.6335 13.2184 91.4064 12.7816 90.9522 12.6725C90.498 12.4541 90.1573 12.4541 89.7031 12.4541C89.1354 12.4541 88.6812 12.5633 88.3405 12.7816C87.9999 13 87.7728 13.5459 87.7728 14.201H84.9341C84.9341 13.4367 85.0476 12.6725 85.3883 12.1266C85.7289 11.4715 86.2967 11.0347 86.978 10.8164C87.7728 10.4888 88.5676 10.3797 89.7031 10.3797H90.0438C91.2928 10.3797 92.2012 10.4888 92.8825 10.8164C93.5638 11.1439 94.018 11.4715 94.3586 11.9082C94.5857 12.3449 94.6993 12.7816 94.6993 13.3276C94.6993 14.0918 94.5857 14.6377 94.1315 14.9653C93.7909 15.2928 93.3367 15.5112 92.7689 15.6204V15.7295C93.4502 15.7295 94.018 16.0571 94.4722 16.4938C95.0399 16.9305 95.267 17.4764 95.267 18.3499C95.267 19.3325 94.9264 19.9876 94.3586 20.4243C93.7909 20.8611 93.2231 21.1886 92.4283 21.2978C91.747 21.5162 90.9522 21.5162 90.1573 21.5162C89.1354 21.5162 88.227 21.5162 87.4322 21.2978C86.7509 21.0794 86.0696 20.6427 85.5018 20.0968C85.0476 19.4417 84.707 18.6774 84.5934 17.4764ZM100.944 17.4764H103.443L102.307 14.201L102.193 13.1092H102.08L101.966 14.201L100.944 17.4764ZM100.263 19.4417L99.6954 21.2978H96.6296L100.717 10.598H103.67L107.757 21.2978H104.692L104.124 19.4417H100.263ZM112.64 14.7469L116.614 10.598H120.134L115.706 14.9653L119.566 19.9876H120.588V23.2631H118.431V21.2978H116.841L113.662 16.9305L112.64 18.0224V21.2978H109.688V10.598H112.64V14.7469ZM124.449 13H121.27V10.598H130.694V13H127.401V21.2978H124.449V13ZM135.804 14.7469H141.141V16.9305H135.804V18.8958H142.049V21.2978H132.852V10.598H141.936V13H135.804V14.7469ZM143.185 21.2978V18.8958C143.525 18.8958 143.752 19.005 143.979 19.005C144.434 19.005 144.774 18.8958 145.001 18.7866C145.228 18.6774 145.456 18.2407 145.569 17.804C145.683 17.2581 145.796 16.4938 145.796 15.402V10.598H154.426V21.2978H151.474V13H148.521V16.7122C148.521 17.6948 148.408 18.5683 148.181 19.2233C148.067 19.8784 147.613 20.4243 147.045 20.7519C146.478 21.1886 145.569 21.407 144.547 21.407C143.866 21.407 143.412 21.407 143.185 21.2978ZM160.444 14.7469H165.781V16.9305H160.444V18.8958H166.689V21.2978H157.492V10.598H166.576V13H160.444V14.7469ZM171.912 14.7469H172.026L176 10.598H179.407L174.978 14.9653L179.861 21.2978H176.114L173.048 16.9305L171.912 18.0224V21.2978H168.96V10.598H171.912V14.7469ZM182.927 15.9479C182.927 16.7122 183.154 17.3673 183.267 17.804C183.494 18.3499 183.835 18.6774 184.176 18.8958C184.63 19.1142 185.084 19.2233 185.538 19.2233C186.22 19.2233 186.787 19.005 187.128 18.6774C187.469 18.3499 187.809 18.0224 187.923 17.4764C188.036 17.0397 188.15 16.4938 188.15 15.9479C188.15 15.402 188.036 14.8561 187.923 14.4194C187.809 13.9826 187.469 13.5459 187.128 13.2184C186.787 12.8908 186.22 12.7816 185.538 12.7816C185.084 12.7816 184.63 12.8908 184.176 13C183.835 13.2184 183.494 13.5459 183.267 14.0918C183.154 14.5285 182.927 15.1836 182.927 15.9479ZM185.538 21.6253C184.857 21.6253 184.062 21.5162 183.267 21.2978C182.359 20.9702 181.564 20.5335 180.883 19.6601C180.202 18.7866 179.861 17.5856 179.861 15.9479C179.861 14.3102 180.202 13.1092 180.883 12.2357C181.564 11.3623 182.359 10.8164 183.267 10.598C184.062 10.3797 184.857 10.2705 185.538 10.2705C186.22 10.2705 187.014 10.3797 187.923 10.598C188.718 10.8164 189.513 11.3623 190.194 12.2357C190.875 13.1092 191.329 14.3102 191.329 15.9479C191.329 17.5856 190.875 18.7866 190.194 19.6601C189.513 20.5335 188.718 20.9702 187.923 21.2978C187.014 21.5162 186.22 21.6253 185.538 21.6253ZM198.596 21.2978L195.871 13.1092V21.2978H193.146V10.598H197.234L199.278 16.9305L199.391 18.2407H199.505L199.732 17.0397L201.662 10.598H205.75V21.2978H203.025V13.1092L200.413 21.2978H198.596Z" fill="#D9DBE7"/>
<path fill-rule="evenodd" clip-rule="evenodd" d="M33.1579 0.007561C39.6302 0.007561 45.194 3.50136 48.0328 8.52371C46.6702 6.99517 44.8534 5.57581 42.1282 4.81154C39.9708 2.19119 31.0004 0.335105 24.9824 2.08201C26.9127 0.990193 29.9785 -0.10162 33.1579 0.007561ZM48.3734 9.39716C49.3953 11.3624 49.9631 13.6552 49.9631 16.0572C49.9631 16.3848 49.8495 16.7123 49.8495 17.0399C49.5089 15.6205 47.6921 13.6552 45.5347 13.0001L45.4211 12.0175C41.9011 9.39716 32.1359 4.81154 20.2133 5.90335L21.3488 4.81154C32.7037 3.61055 43.7179 6.01253 48.3734 9.39716ZM49.8495 17.2582C49.6224 19.6602 48.9412 21.8438 47.8057 23.8091C47.1244 22.1714 45.4211 20.8612 44.3992 20.4245L44.8534 19.3327C40.9927 15.7297 31.3411 10.8165 17.261 11.2532C17.6017 10.2706 18.0559 9.28798 18.6236 8.30534C18.283 8.74207 18.0559 9.39716 17.7152 10.1614C32.0224 9.61552 41.9011 12.4542 49.8495 17.2582ZM47.5786 24.0275C46.5566 25.8835 45.0805 27.4121 43.3773 28.7223C42.9231 27.8488 41.9011 26.6478 40.6521 25.8835L41.2198 25.3376C35.9966 21.0796 27.1398 16.9307 16.4662 16.6031V15.4021C30.2056 15.7297 39.4031 18.7868 47.5786 24.0275ZM42.696 29.159C40.7656 30.4692 38.4947 31.3426 35.9966 31.7793C35.883 31.1242 35.4288 30.36 34.4069 29.5957L35.3153 29.3773C33.0443 27.4121 28.3888 23.4816 17.7152 21.953C17.261 20.9704 16.9204 19.8786 16.8069 18.7868C16.9204 19.4418 17.0339 20.0969 17.261 20.752C30.2056 21.5163 34.8611 24.4642 42.696 29.159ZM35.0882 31.8885C34.5205 31.9977 33.8392 31.9977 33.1579 31.9977C29.5243 31.9977 26.9127 31.0151 24.9824 29.9233C26.572 30.2508 28.843 30.7967 28.843 30.36C28.3888 29.0498 23.8469 27.4121 21.3488 27.3029C21.0082 26.8662 20.6675 26.5386 20.3269 26.1019C25.4366 26.8662 31.3411 28.3947 35.0882 31.8885ZM16.4662 15.4021C16.5798 14.4195 16.6933 13.546 16.9204 12.5634C16.6933 13.4369 16.5798 14.5287 16.4662 15.4021Z" fill="#D9DBE7"/>
<path fill-rule="evenodd" clip-rule="evenodd" d="M16.6917 0.00987166C19.7575 0.00987166 22.4827 0.774141 24.9807 2.08432C23.6181 2.84859 22.3691 3.72204 21.3472 4.81385H4.8826C7.83487 1.86595 12.0362 0.00987166 16.6917 0.00987166ZM20.2117 5.90566C19.1897 7.21584 18.2814 8.6352 17.7136 10.1637H1.13549C1.81678 8.6352 2.72517 7.21584 3.74711 5.90566H20.2117ZM17.2594 11.2555C16.8052 12.5657 16.5781 13.9851 16.4646 15.4044H0C0 13.9851 0.340646 12.5657 0.794842 11.2555H17.2594ZM16.4646 16.6054C16.5781 18.0248 16.8052 19.4441 17.2594 20.7543H0.794842C0.340646 19.4441 0.113549 18.0248 0 16.6054H16.4646ZM17.7136 21.9553C18.2814 23.4839 19.1897 24.9032 20.2117 26.1042H3.74711C2.72517 24.9032 1.81678 23.4839 1.13549 21.9553H17.7136ZM21.3472 27.3052C22.4827 28.2878 23.6181 29.1613 24.9807 29.9256C22.4827 31.2357 19.7575 32 16.6917 32C12.0362 32 7.94841 30.2531 4.8826 27.3052H21.3472Z" fill="#D9DBE7"/>
</svg>
