<svg width="151" height="40" viewBox="0 0 151 40" fill="none" xmlns="http://www.w3.org/2000/svg">
<path d="M52.4337 17.1344H54.2595V24.3542L61.1109 17.1344H63.586L57.7979 23.0335L63.84 31.6934H61.4306L56.518 24.3246L54.2591 26.6489V31.6938H52.4337V17.1344Z" fill="#D9DBE7"/>
<path d="M70.8993 30.3924C70.2718 30.9554 69.6681 31.3524 69.0877 31.5838C68.5074 31.8156 67.8846 31.9315 67.2195 31.9315C66.1214 31.9315 65.2776 31.6484 64.6877 31.0827C64.0979 30.5162 63.8031 29.7932 63.8031 28.9125C63.8031 28.3961 63.9145 27.9242 64.1375 27.4973C64.3601 27.0703 64.6517 26.7278 65.0126 26.4696C65.3735 26.2117 65.7799 26.0166 66.2315 25.8837C66.5639 25.7915 67.0658 25.7016 67.7373 25.6157C69.1052 25.4434 70.1122 25.2384 70.7583 24.9995C70.7646 24.7547 70.7678 24.599 70.7678 24.5327C70.7678 23.8042 70.6078 23.2917 70.2877 22.9937C69.8547 22.59 69.2117 22.3878 68.3584 22.3878C67.5614 22.3878 66.9735 22.5352 66.5936 22.8297C66.2141 23.1242 65.9332 23.6458 65.7514 24.394L64.0951 24.1559C64.2456 23.408 64.4932 22.8033 64.8383 22.3432C65.1833 21.8832 65.6821 21.5292 66.3345 21.2808C66.987 21.0325 67.7432 20.9083 68.6029 20.9083C69.4562 20.9083 70.1494 21.0147 70.6826 21.2264C71.2158 21.4385 71.608 21.705 71.8588 22.0259C72.1096 22.3468 72.2854 22.7524 72.3861 23.2425C72.4427 23.5468 72.4708 24.0963 72.4708 24.8911V27.2746C72.4708 28.9366 72.5069 29.9876 72.579 30.4275C72.6511 30.8679 72.7937 31.2901 73.0072 31.6938H71.238C71.0625 31.3224 70.9496 30.8888 70.8993 30.3924ZM70.7583 26.4002C70.1435 26.6651 69.2212 26.8902 67.9916 27.0755C67.2952 27.1815 66.8024 27.3006 66.514 27.4326C66.2252 27.5655 66.0025 27.7591 65.8457 28.0141C65.6888 28.2692 65.6104 28.5518 65.6104 28.8629C65.6104 29.3395 65.7811 29.7369 66.1234 30.0546C66.4652 30.3723 66.9656 30.5312 67.6244 30.5312C68.2768 30.5312 68.8572 30.3806 69.3654 30.0794C69.8737 29.7783 70.2469 29.3659 70.4854 28.8432C70.6672 28.4395 70.7583 27.8434 70.7583 27.0554V26.4002Z" fill="#D9DBE7"/>
<path d="M74.2028 31.6934V30.2434L80.5649 22.5368C79.8435 22.5766 79.2061 22.5963 78.6543 22.5963H74.5795V21.1464H82.7485V22.3279L77.3371 29.0213L76.2921 30.243C77.0511 30.1835 77.7634 30.1535 78.4285 30.1535H83.0496V31.6926H74.2028V31.6934Z" fill="#D9DBE7"/>
<path d="M87.7091 31.6934V18.8524H83.1633V17.1344H94.0989V18.8524H89.5345V31.6934H87.7091Z" fill="#D9DBE7"/>
<path d="M93.6362 21.1468H95.161V22.7457C95.5496 21.9979 95.9093 21.5043 96.2385 21.2658C96.5677 21.0273 96.9302 20.9083 97.3255 20.9083C97.896 20.9083 98.4767 21.1003 99.0666 21.4846L98.4831 23.1431C98.0691 22.8849 97.6547 22.756 97.2408 22.756C96.8704 22.756 96.538 22.8735 96.2429 23.1084C95.9481 23.3438 95.7378 23.6698 95.6122 24.0865C95.424 24.722 95.3297 25.4174 95.3297 26.1719V31.6938H93.6362V21.1468Z" fill="#D9DBE7"/>
<path d="M106.402 30.3924C105.775 30.9554 105.171 31.3524 104.591 31.5838C104.011 31.8152 103.388 31.9315 102.723 31.9315C101.625 31.9315 100.781 31.6484 100.191 31.0827C99.601 30.5162 99.3063 29.7932 99.3063 28.9125C99.3063 28.3961 99.4176 27.9242 99.6406 27.4973C99.8633 27.0703 100.155 26.7278 100.516 26.4696C100.877 26.2117 101.283 26.0166 101.735 25.8837C102.067 25.7915 102.569 25.7016 103.24 25.6157C104.608 25.4434 105.615 25.2384 106.261 24.9995C106.268 24.7547 106.271 24.599 106.271 24.5327C106.271 23.8042 106.111 23.2917 105.791 22.9937C105.358 22.59 104.714 22.3878 103.862 22.3878C103.065 22.3878 102.476 22.5352 102.097 22.8297C101.717 23.1242 101.436 23.6458 101.255 24.394L99.5978 24.1559C99.7488 23.408 99.9964 22.8033 100.341 22.3432C100.686 21.8832 101.185 21.5292 101.838 21.2808C102.49 21.0325 103.246 20.9083 104.106 20.9083C104.959 20.9083 105.653 21.0147 106.186 21.2264C106.719 21.4385 107.111 21.705 107.362 22.0259C107.613 22.3468 107.789 22.7524 107.89 23.2425C107.946 23.5468 107.974 24.0963 107.974 24.8911V27.2746C107.974 28.9366 108.01 29.9876 108.082 30.4275C108.154 30.8679 108.297 31.2901 108.51 31.6938H106.741C106.565 31.3224 106.452 30.8888 106.402 30.3924ZM106.261 26.4002C105.646 26.6651 104.724 26.8902 103.495 27.0755C102.798 27.1815 102.306 27.3006 102.017 27.4326C101.728 27.5655 101.506 27.7591 101.349 28.0141C101.192 28.2692 101.113 28.5518 101.113 28.8629C101.113 29.3395 101.285 29.7369 101.627 30.0546C101.968 30.3723 102.469 30.5312 103.128 30.5312C103.78 30.5312 104.36 30.3806 104.869 30.0794C105.377 29.7783 105.75 29.3659 105.988 28.8432C106.171 28.4395 106.261 27.8434 106.261 27.0554V26.4002Z" fill="#D9DBE7"/>
<path d="M110.214 31.6934V21.1468H111.739V22.6464C112.473 21.4878 113.533 20.9083 114.92 20.9083C115.523 20.9083 116.076 21.0226 116.581 21.2509C117.086 21.4795 117.464 21.7791 117.715 22.1497C117.966 22.5203 118.142 22.961 118.242 23.4707C118.304 23.8019 118.336 24.3814 118.336 25.2084V31.6934H116.642V25.2778C116.642 24.5493 116.576 24.0049 116.444 23.6438C116.312 23.2831 116.079 22.9949 115.743 22.78C115.407 22.5648 115.014 22.4576 114.562 22.4576C113.841 22.4576 113.217 22.6992 112.694 23.1825C112.17 23.6659 111.908 24.5828 111.908 25.9334V31.6934H110.214Z" fill="#D9DBE7"/>
<path d="M120.257 28.5451L121.932 28.2668C122.026 28.9756 122.288 29.5185 122.717 29.8957C123.147 30.273 123.748 30.4618 124.52 30.4618C125.298 30.4618 125.875 30.2947 126.251 29.9608C126.628 29.6261 126.816 29.2338 126.816 28.784C126.816 28.3803 126.65 28.0626 126.317 27.8304C126.085 27.6719 125.508 27.4697 124.586 27.2249C123.343 26.8937 122.482 26.6075 122.002 26.3655C121.523 26.1242 121.159 25.7895 120.911 25.3626C120.663 24.9356 120.539 24.4638 120.539 23.9473C120.539 23.4774 120.641 23.0422 120.845 22.6413C121.049 22.2408 121.327 21.908 121.678 21.6431C121.941 21.4381 122.3 21.2643 122.755 21.122C123.211 20.9796 123.698 20.9083 124.219 20.9083C125.003 20.9083 125.692 21.0277 126.285 21.2658C126.878 21.504 127.315 21.8272 127.598 22.2341C127.88 22.6413 128.074 23.1861 128.181 23.8681L126.524 24.1062C126.45 23.5634 126.231 23.1396 125.871 22.8348C125.51 22.5305 125 22.3779 124.342 22.3779C123.563 22.3779 123.008 22.5139 122.676 22.7852C122.343 23.0564 122.177 23.3745 122.177 23.7384C122.177 23.9706 122.246 24.1787 122.384 24.364C122.522 24.556 122.738 24.7153 123.033 24.841C123.203 24.9073 123.701 25.0594 124.529 25.2975C125.728 25.635 126.564 25.9121 127.037 26.127C127.511 26.3422 127.883 26.6552 128.153 27.0656C128.422 27.4764 128.557 27.9861 128.557 28.5952C128.557 29.1909 128.392 29.7522 128.063 30.2785C127.734 30.8048 127.258 31.212 126.637 31.5002C126.016 31.788 125.313 31.9323 124.529 31.9323C123.23 31.9323 122.24 31.6476 121.56 31.0784C120.879 30.5083 120.445 29.6639 120.257 28.5451Z" fill="#D9DBE7"/>
<path d="M130.232 24.6025C130.232 22.186 130.848 20.2941 132.077 18.9269C133.307 17.5598 134.894 16.8762 136.839 16.8762C138.113 16.8762 139.261 17.1975 140.284 17.8397C141.306 18.4819 142.086 19.3775 142.622 20.5259C143.159 21.6746 143.427 22.9775 143.427 24.4338C143.427 25.9102 143.144 27.2312 142.58 28.3965C142.015 29.5618 141.215 30.4437 140.18 31.0429C139.144 31.6425 138.027 31.9417 136.829 31.9417C135.531 31.9417 134.37 31.6106 133.347 30.9483C132.324 30.2864 131.55 29.3825 131.023 28.2372C130.496 27.092 130.232 25.8802 130.232 24.6025ZM132.115 24.6321C132.115 26.3864 132.562 27.7689 133.456 28.7785C134.35 29.7885 135.471 30.2931 136.82 30.2931C138.195 30.2931 139.325 29.7834 140.213 28.7635C141.101 27.7441 141.545 26.2973 141.545 24.4235C141.545 23.2385 141.355 22.2041 140.975 21.3202C140.595 20.4364 140.04 19.7512 139.309 19.2644C138.578 18.7779 137.758 18.5343 136.848 18.5343C135.555 18.5343 134.444 19.0026 133.512 19.9393C132.58 20.8767 132.115 22.441 132.115 24.6321Z" fill="#D9DBE7"/>
<path d="M145.399 19.1899V17.1344H147.093V19.1899H145.399ZM145.399 31.6934V21.1468H147.093V31.6934H145.399Z" fill="#D9DBE7"/>
<path d="M149.056 31.6934V17.1344H150.75V31.6934H149.056Z" fill="#D9DBE7"/>
<path d="M0 11.8633C0 9.80506 1.67729 8.13632 3.74558 8.13632C5.81426 8.13632 7.49115 9.80506 7.49115 11.8633C7.49115 13.9215 5.81465 15.5906 3.74558 15.5906C1.67729 15.5902 0 13.9215 0 11.8633Z" fill="#D9DBE7"/>
<path d="M8.17767 11.8633C8.17767 9.80506 9.85377 8.13632 11.9229 8.13632C13.99 8.13632 15.6684 9.80506 15.6684 11.8633C15.6684 13.9215 13.99 15.5906 11.9229 15.5906C9.85377 15.5902 8.17767 13.9215 8.17767 11.8633Z" fill="#D9DBE7"/>
<path d="M16.3526 11.8633C16.3526 9.80506 18.0311 8.13632 20.0982 8.13632C22.1668 8.13632 23.8437 9.80506 23.8437 11.8633C23.8437 13.9215 22.1672 15.5906 20.0982 15.5906C18.0314 15.5902 16.3526 13.9215 16.3526 11.8633Z" fill="#D9DBE7"/>
<path d="M24.5303 11.8633C24.5303 9.80506 26.2067 8.13632 28.2758 8.13632C30.3445 8.13632 32.0198 9.80506 32.0198 11.8633C32.0198 13.9215 30.3445 15.5906 28.2758 15.5906C26.2067 15.5902 24.5303 13.9215 24.5303 11.8633Z" fill="#D9DBE7"/>
<path d="M32.7055 11.8633C32.7055 9.80506 34.3832 8.13632 36.4507 8.13632C38.5194 8.13632 40.1959 9.80506 40.1959 11.8633C40.1959 13.9215 38.5194 15.5906 36.4507 15.5906C34.3832 15.5902 32.7055 13.9215 32.7055 11.8633Z" fill="#D9DBE7"/>
<path d="M0 19.9992C0 17.9414 1.67729 16.273 3.74558 16.273C5.81426 16.273 7.49115 17.9414 7.49115 19.9992C7.49115 22.0574 5.81465 23.7266 3.74558 23.7266C1.67729 23.727 0 22.0574 0 19.9992Z" fill="#D9DBE7"/>
<path d="M8.17767 19.9992C8.17767 17.9414 9.85377 16.273 11.9229 16.273C13.99 16.273 15.6684 17.9414 15.6684 19.9992C15.6684 22.0574 13.99 23.7266 11.9229 23.7266C9.85377 23.727 8.17767 22.0574 8.17767 19.9992Z" fill="#D9DBE7"/>
<path d="M16.3526 19.9992C16.3526 17.9414 18.0311 16.273 20.0982 16.273C22.1668 16.273 23.8437 17.9414 23.8437 19.9992C23.8437 22.0574 22.1672 23.7266 20.0982 23.7266C18.0314 23.727 16.3526 22.0574 16.3526 19.9992Z" fill="#D9DBE7"/>
<path d="M24.5303 19.9992C24.5303 17.9414 26.2067 16.273 28.2758 16.273C30.3445 16.273 32.0198 17.9414 32.0198 19.9992C32.0198 22.0574 30.3445 23.7266 28.2758 23.7266C26.2067 23.727 24.5303 22.0574 24.5303 19.9992Z" fill="#D9DBE7"/>
<path d="M32.7055 19.9992C32.7055 17.9414 34.3832 16.273 36.4507 16.273C38.5194 16.273 40.1959 17.9414 40.1959 19.9992C40.1959 22.0574 38.5194 23.7266 36.4507 23.7266C34.3832 23.727 32.7055 22.0574 32.7055 19.9992Z" fill="#D9DBE7"/>
<path d="M0 28.1367C0 26.0777 1.67729 24.4094 3.74558 24.4094C5.81426 24.4094 7.49115 26.0777 7.49115 28.1367C7.49115 30.1949 5.81465 31.8633 3.74558 31.8633C1.67729 31.8633 0 30.1949 0 28.1367Z" fill="#D9DBE7"/>
<path d="M8.17767 28.1367C8.17767 26.0777 9.85377 24.4094 11.9229 24.4094C13.99 24.4094 15.6684 26.0777 15.6684 28.1367C15.6684 30.1949 13.99 31.8633 11.9229 31.8633C9.85377 31.8633 8.17767 30.1949 8.17767 28.1367Z" fill="#D9DBE7"/>
<path d="M16.3526 28.1367C16.3526 26.0777 18.0311 24.4094 20.0982 24.4094C22.1668 24.4094 23.8437 26.0777 23.8437 28.1367C23.8437 30.1949 22.1672 31.8633 20.0982 31.8633C18.0314 31.8633 16.3526 30.1949 16.3526 28.1367Z" fill="#D9DBE7"/>
<path d="M24.5303 28.1367C24.5303 26.0777 26.2067 24.4094 28.2758 24.4094C30.3445 24.4094 32.0198 26.0777 32.0198 28.1367C32.0198 30.1949 30.3445 31.8633 28.2758 31.8633C26.2067 31.8633 24.5303 30.1949 24.5303 28.1367Z" fill="#D9DBE7"/>
<path d="M32.7055 28.1367C32.7055 26.0777 34.3832 24.4094 36.4507 24.4094C38.5194 24.4094 40.1959 26.0777 40.1959 28.1367C40.1959 30.1949 38.5194 31.8633 36.4507 31.8633C34.3832 31.8633 32.7055 30.1949 32.7055 28.1367Z" fill="#D9DBE7"/>
<path d="M24.5303 36.273C24.5303 34.2136 26.2067 32.5457 28.2758 32.5457C30.3445 32.5457 32.0198 34.2136 32.0198 36.273C32.0198 38.3317 30.3445 40 28.2758 40C26.2067 40 24.5303 38.3313 24.5303 36.273Z" fill="#D9DBE7"/>
<path d="M24.5303 3.72736C24.5303 1.66755 26.2067 0 28.2754 0C30.3441 0 32.0194 1.66755 32.0194 3.72736C32.0194 5.7844 30.3441 7.45353 28.2754 7.45353C26.2067 7.45314 24.5303 5.7844 24.5303 3.72736Z" fill="#D9DBE7"/>
<path d="M40.8828 19.9992C40.8828 17.9414 42.5593 16.273 44.6284 16.273C46.6963 16.273 48.374 17.9414 48.374 19.9992C48.374 22.0574 46.6967 23.7266 44.6284 23.7266C42.5593 23.727 40.8828 22.0574 40.8828 19.9992Z" fill="#D9DBE7"/>
</svg>
